<svg width="40" height="40" viewBox="0 0 40 40" fill="none" xmlns="http://www.w3.org/2000/svg">
<g id="email">
<path id="&#240;&#159;&#142;&#168; Icon color" fill-rule="evenodd" clip-rule="evenodd" d="M31.6666 30H8.33325C7.41492 30 6.66659 29.2533 6.66659 28.3333V12.0833L18.9999 21.3333C19.2966 21.5566 19.6483 21.6666 19.9999 21.6666C20.3516 21.6666 20.7033 21.5566 20.9999 21.3333L33.3333 12.0833V28.3333C33.3333 29.2533 32.5849 30 31.6666 30ZM30.5549 9.99996L19.9999 17.9166L9.44492 9.99996H30.5549ZM31.6666 6.66663H8.33325C5.57659 6.66663 3.33325 8.90996 3.33325 11.6666V28.3333C3.33325 31.09 5.57659 33.3333 8.33325 33.3333H31.6666C34.4233 33.3333 36.6666 31.09 36.6666 28.3333V11.6666C36.6666 8.90996 34.4233 6.66663 31.6666 6.66663Z" fill="white"/>
<mask id="mask0_31_710" style="mask-type:luminance" maskUnits="userSpaceOnUse" x="3" y="6" width="34" height="28">
<path id="&#240;&#159;&#142;&#168; Icon color_2" fill-rule="evenodd" clip-rule="evenodd" d="M31.6666 30H8.33325C7.41492 30 6.66659 29.2533 6.66659 28.3333V12.0833L18.9999 21.3333C19.2966 21.5566 19.6483 21.6666 19.9999 21.6666C20.3516 21.6666 20.7033 21.5566 20.9999 21.3333L33.3333 12.0833V28.3333C33.3333 29.2533 32.5849 30 31.6666 30ZM30.5549 9.99996L19.9999 17.9166L9.44492 9.99996H30.5549ZM31.6666 6.66663H8.33325C5.57659 6.66663 3.33325 8.90996 3.33325 11.6666V28.3333C3.33325 31.09 5.57659 33.3333 8.33325 33.3333H31.6666C34.4233 33.3333 36.6666 31.09 36.6666 28.3333V11.6666C36.6666 8.90996 34.4233 6.66663 31.6666 6.66663Z" fill="white"/>
</mask>
<g mask="url(#mask0_31_710)">
</g>
</g>
</svg>
