<svg width="41" height="40" viewBox="0 0 41 40" fill="none" xmlns="http://www.w3.org/2000/svg">
<g id="email">
<path id="&#240;&#159;&#142;&#168; Icon color" fill-rule="evenodd" clip-rule="evenodd" d="M31.9654 30.0001H8.63208C7.71375 30.0001 6.96541 29.2534 6.96541 28.3334V12.0834L19.2987 21.3334C19.5954 21.5567 19.9471 21.6667 20.2987 21.6667C20.6504 21.6667 21.0021 21.5567 21.2987 21.3334L33.6321 12.0834V28.3334C33.6321 29.2534 32.8837 30.0001 31.9654 30.0001ZM30.8537 10.0001L20.2987 17.9167L9.74375 10.0001H30.8537ZM31.9654 6.66675H8.63208C5.87541 6.66675 3.63208 8.91008 3.63208 11.6667V28.3334C3.63208 31.0901 5.87541 33.3334 8.63208 33.3334H31.9654C34.7221 33.3334 36.9654 31.0901 36.9654 28.3334V11.6667C36.9654 8.91008 34.7221 6.66675 31.9654 6.66675Z" fill="#8EAA51"/>
<mask id="mask0_31_828" style="mask-type:luminance" maskUnits="userSpaceOnUse" x="3" y="6" width="34" height="28">
<path id="&#240;&#159;&#142;&#168; Icon color_2" fill-rule="evenodd" clip-rule="evenodd" d="M31.9654 30.0001H8.63208C7.71375 30.0001 6.96541 29.2534 6.96541 28.3334V12.0834L19.2987 21.3334C19.5954 21.5567 19.9471 21.6667 20.2987 21.6667C20.6504 21.6667 21.0021 21.5567 21.2987 21.3334L33.6321 12.0834V28.3334C33.6321 29.2534 32.8837 30.0001 31.9654 30.0001ZM30.8537 10.0001L20.2987 17.9167L9.74375 10.0001H30.8537ZM31.9654 6.66675H8.63208C5.87541 6.66675 3.63208 8.91008 3.63208 11.6667V28.3334C3.63208 31.0901 5.87541 33.3334 8.63208 33.3334H31.9654C34.7221 33.3334 36.9654 31.0901 36.9654 28.3334V11.6667C36.9654 8.91008 34.7221 6.66675 31.9654 6.66675Z" fill="white"/>
</mask>
<g mask="url(#mask0_31_828)">
</g>
</g>
</svg>
