<svg width="40" height="40" viewBox="0 0 40 40" fill="none" xmlns="http://www.w3.org/2000/svg">
<g id="phone-call">
<path id="&#240;&#159;&#142;&#168; Icon color" fill-rule="evenodd" clip-rule="evenodd" d="M30 29.0007C30 28.8156 29.9883 28.6323 29.965 28.454L22.2633 26.6856C22.1117 26.979 21.945 27.299 21.7883 27.594C21.03 29.044 20.4867 30.0973 19.0767 29.5323C13.5667 27.599 9.06833 23.1007 7.11 17.5223C6.515 16.2157 7.64833 15.6223 9.085 14.8707C9.37667 14.719 9.69167 14.554 9.98 14.4023L8.21333 6.70232C8.02833 6.67732 7.84833 6.66732 7.66667 6.66732C5.27833 6.66732 3.33333 8.61065 3.33333 10.999C3.33333 23.314 13.3517 33.334 25.6667 33.334C28.0567 33.334 30 31.3906 30 29.0007ZM33.2267 27.7306C33.2967 28.144 33.3333 28.569 33.3333 29.0007C33.3333 33.2273 29.895 36.6673 25.6667 36.6673C11.515 36.6673 0 25.1523 0 10.999C0 6.77232 3.43833 3.33398 7.66667 3.33398C8.1 3.33398 8.52833 3.37065 8.94333 3.44232C9.34833 3.50732 9.75667 3.61065 10.1517 3.74732C10.695 3.93565 11.1017 4.38898 11.23 4.94898L13.5117 14.889C13.6383 15.4357 13.48 16.0107 13.09 16.4157C12.8633 16.654 12.8583 16.659 10.7917 17.739C12.465 21.364 15.3733 24.2607 18.9233 25.879C20.0083 23.8107 20.0133 23.804 20.25 23.5757C20.6567 23.1873 21.2283 23.0323 21.7767 23.154L31.7167 25.4356C32.2767 25.564 32.7317 25.9723 32.9183 26.514C33.055 26.9057 33.16 27.314 33.2267 27.7306ZM18.3333 6.66732C24.765 6.66732 30 11.9007 30 18.334C30 19.254 30.745 20.0007 31.6667 20.0007C32.5883 20.0007 33.3333 19.254 33.3333 18.334C33.3333 10.0623 26.605 3.33398 18.3333 3.33398C17.4133 3.33398 16.6667 4.07898 16.6667 5.00065C16.6667 5.92065 17.4133 6.66732 18.3333 6.66732ZM16.6667 11.6673C16.6667 10.7457 17.4133 10.0007 18.3333 10.0007C22.9283 10.0007 26.6667 13.739 26.6667 18.334C26.6667 19.254 25.9217 20.0007 25 20.0007C24.0783 20.0007 23.3333 19.254 23.3333 18.334C23.3333 15.5757 21.09 13.334 18.3333 13.334C17.4133 13.334 16.6667 12.5873 16.6667 11.6673Z" fill="white"/>
</g>
</svg>
