<svg width="41" height="40" viewBox="0 0 41 40" fill="none" xmlns="http://www.w3.org/2000/svg">
<g id="phone-call">
<path id="&#240;&#159;&#142;&#168; Icon color" fill-rule="evenodd" clip-rule="evenodd" d="M30.2988 29.0007C30.2988 28.8156 30.2872 28.6323 30.2638 28.454L22.5622 26.6856C22.4105 26.979 22.2438 27.299 22.0872 27.594C21.3288 29.044 20.7855 30.0973 19.3755 29.5323C13.8655 27.599 9.36716 23.1007 7.40883 17.5223C6.81383 16.2157 7.94716 15.6223 9.38383 14.8707C9.6755 14.719 9.99049 14.554 10.2788 14.4023L8.51216 6.70232C8.32716 6.67732 8.14716 6.66732 7.96549 6.66732C5.57716 6.66732 3.63216 8.61065 3.63216 10.999C3.63216 23.314 13.6505 33.334 25.9655 33.334C28.3555 33.334 30.2988 31.3906 30.2988 29.0007ZM33.5255 27.7306C33.5955 28.144 33.6322 28.569 33.6322 29.0007C33.6322 33.2273 30.1938 36.6673 25.9655 36.6673C11.8138 36.6673 0.298828 25.1523 0.298828 10.999C0.298828 6.77232 3.73716 3.33398 7.96549 3.33398C8.39883 3.33398 8.82716 3.37065 9.24216 3.44232C9.64716 3.50732 10.0555 3.61065 10.4505 3.74732C10.9938 3.93565 11.4005 4.38898 11.5288 4.94898L13.8105 14.889C13.9372 15.4357 13.7788 16.0107 13.3888 16.4157C13.1622 16.654 13.1572 16.659 11.0905 17.739C12.7638 21.364 15.6722 24.2607 19.2222 25.879C20.3072 23.8107 20.3122 23.804 20.5488 23.5757C20.9555 23.1873 21.5272 23.0323 22.0755 23.154L32.0155 25.4356C32.5755 25.564 33.0305 25.9723 33.2172 26.514C33.3538 26.9057 33.4588 27.314 33.5255 27.7306ZM18.6322 6.66732C25.0638 6.66732 30.2988 11.9007 30.2988 18.334C30.2988 19.254 31.0438 20.0007 31.9655 20.0007C32.8872 20.0007 33.6322 19.254 33.6322 18.334C33.6322 10.0623 26.9038 3.33398 18.6322 3.33398C17.7122 3.33398 16.9655 4.07898 16.9655 5.00065C16.9655 5.92065 17.7122 6.66732 18.6322 6.66732ZM16.9655 11.6673C16.9655 10.7457 17.7122 10.0007 18.6322 10.0007C23.2272 10.0007 26.9655 13.739 26.9655 18.334C26.9655 19.254 26.2205 20.0007 25.2988 20.0007C24.3772 20.0007 23.6322 19.254 23.6322 18.334C23.6322 15.5757 21.3888 13.334 18.6322 13.334C17.7122 13.334 16.9655 12.5873 16.9655 11.6673Z" fill="#8EAA51"/>
</g>
</svg>
