<svg width="20" height="24" viewBox="0 0 20 24" fill="none" xmlns="http://www.w3.org/2000/svg">
<g id="chevron-down">
<path id="&#240;&#159;&#142;&#168; Icon color" fill-rule="evenodd" clip-rule="evenodd" d="M9.99988 15.5C9.78655 15.5 9.57322 15.402 9.41072 15.207L6.07738 11.207C5.75155 10.816 5.75155 10.184 6.07738 9.79301C6.40322 9.40201 6.92988 9.40201 7.25572 9.79301L10.0099 13.098L12.754 9.91801C13.0865 9.53501 13.6124 9.54601 13.9324 9.94301C14.2524 10.34 14.2432 10.974 13.9124 11.357L10.579 15.219C10.4165 15.407 10.2082 15.5 9.99988 15.5Z" fill="white"/>
<mask id="mask0_5_369" style="mask-type:luminance" maskUnits="userSpaceOnUse" x="5" y="9" width="10" height="7">
<path id="&#240;&#159;&#142;&#168; Icon color_2" fill-rule="evenodd" clip-rule="evenodd" d="M9.99988 15.5C9.78655 15.5 9.57322 15.402 9.41072 15.207L6.07738 11.207C5.75155 10.816 5.75155 10.184 6.07738 9.79301C6.40322 9.40201 6.92988 9.40201 7.25572 9.79301L10.0099 13.098L12.754 9.91801C13.0865 9.53501 13.6124 9.54601 13.9324 9.94301C14.2524 10.34 14.2432 10.974 13.9124 11.357L10.579 15.219C10.4165 15.407 10.2082 15.5 9.99988 15.5Z" fill="white"/>
</mask>
<g mask="url(#mask0_5_369)">
</g>
</g>
</svg>
